<svg xmlns="http://www.w3.org/2000/svg" viewBox="0 0 1200 800" role="img" aria-label="Personal portfolio logo">
  <defs>
    <linearGradient id="frame" x1="0" x2="1" y1="0" y2="1">
      <stop offset="0" stop-color="#0b1020"/>
      <stop offset="1" stop-color="#111827"/>
    </linearGradient>
    <linearGradient id="edge" x1="0" x2="1" y1="0" y2="0">
      <stop offset="0" stop-color="#22d3ee"/>
      <stop offset="0.5" stop-color="#6366f1"/>
      <stop offset="1" stop-color="#a78bfa"/>
    </linearGradient>
    <radialGradient id="core" cx="50%" cy="40%" r="60%">
      <stop offset="0" stop-color="#1f2937"/>
      <stop offset="1" stop-color="#0b1020"/>
    </radialGradient>
  </defs>
  <rect width="1200" height="800" rx="52" fill="url(#frame)"/>
  <rect x="70" y="70" width="1060" height="660" rx="46" fill="#0f172a"/>

  <g transform="translate(600 340)">
    <polygon points="0,-210 182,-105 182,105 0,210 -182,105 -182,-105" fill="url(#core)" stroke="url(#edge)" stroke-width="10"/>
    <polygon points="0,-150 130,-75 130,75 0,150 -130,75 -130,-75" fill="#0b1020" stroke="#312e81" stroke-width="4"/>
    <circle cx="0" cy="0" r="58" fill="#0f172a" stroke="url(#edge)" stroke-width="8"/>
    <circle cx="0" cy="0" r="6" fill="#22d3ee"/>
    <line x1="0" y1="-150" x2="0" y2="-90" stroke="#6366f1" stroke-width="6"/>
    <line x1="130" y1="75" x2="78" y2="45" stroke="#6366f1" stroke-width="6"/>
    <line x1="-130" y1="75" x2="-78" y2="45" stroke="#6366f1" stroke-width="6"/>
    <line x1="-130" y1="-75" x2="-78" y2="-45" stroke="#6366f1" stroke-width="6"/>
    <line x1="130" y1="-75" x2="78" y2="-45" stroke="#6366f1" stroke-width="6"/>
    <text x="0" y="18" text-anchor="middle" font-family="'Segoe UI', Arial, sans-serif" font-size="68" font-weight="800" fill="#e5e7eb">SG</text>
  </g>

  <text x="600" y="610" text-anchor="middle" font-family="'Segoe UI', Arial, sans-serif" font-size="30" font-weight="600" fill="#c7d2fe">Personal Portfolio</text>
  <text x="600" y="645" text-anchor="middle" font-family="'Segoe UI', Arial, sans-serif" font-size="18" font-weight="600" fill="#94a3b8">FUTURISTIC TECH BADGE</text>
</svg>
