<svg xmlns="http://www.w3.org/2000/svg" viewBox="0 0 1200 800" role="img" aria-label="Personal portfolio logo">
  <defs>
    <linearGradient id="panel" x1="0" x2="1" y1="0" y2="1">
      <stop offset="0" stop-color="#0b1020"/>
      <stop offset="1" stop-color="#111827"/>
    </linearGradient>
    <linearGradient id="neon" x1="0" x2="1" y1="0" y2="1">
      <stop offset="0" stop-color="#22d3ee"/>
      <stop offset="0.55" stop-color="#6366f1"/>
      <stop offset="1" stop-color="#a78bfa"/>
    </linearGradient>
    <radialGradient id="glow" cx="50%" cy="35%" r="60%">
      <stop offset="0" stop-color="#8b5cf6" stop-opacity="0.7"/>
      <stop offset="1" stop-color="#0b1020" stop-opacity="0"/>
    </radialGradient>
  </defs>
  <rect width="1200" height="800" rx="48" fill="url(#panel)"/>
  <rect x="60" y="60" width="1080" height="680" rx="42" fill="#0f172a"/>
  <circle cx="600" cy="330" r="280" fill="url(#glow)"/>
  <circle cx="600" cy="330" r="210" fill="none" stroke="url(#neon)" stroke-width="12"/>
  <circle cx="600" cy="330" r="170" fill="#0b1020"/>
  <path d="M510 315c0-50 40-90 90-90h50c50 0 90 40 90 90v35c0 32-26 58-58 58H568c-32 0-58-26-58-58v-35z" fill="#0f172a"/>
  <path d="M560 420h160" stroke="url(#neon)" stroke-width="8" stroke-linecap="round"/>
  <text x="600" y="345" text-anchor="middle" font-family="'Segoe UI', Arial, sans-serif" font-size="88" font-weight="800" fill="#e5e7eb">SG</text>
  <text x="600" y="460" text-anchor="middle" font-family="'Segoe UI', Arial, sans-serif" font-size="30" font-weight="600" fill="#c7d2fe">Personal Portfolio</text>
  <g opacity="0.65">
    <circle cx="220" cy="190" r="5" fill="#93c5fd"/>
    <circle cx="980" cy="610" r="6" fill="#c4b5fd"/>
    <circle cx="300" cy="610" r="4" fill="#67e8f9"/>
    <circle cx="930" cy="210" r="4" fill="#a78bfa"/>
  </g>
</svg>
