<svg xmlns="http://www.w3.org/2000/svg" viewBox="0 0 1200 800" role="img" aria-label="Personal portfolio logo">
  <defs>
    <linearGradient id="bg" x1="0" x2="1" y1="0" y2="1">
      <stop offset="0" stop-color="#3b82f6"/>
      <stop offset="0.5" stop-color="#6366f1"/>
      <stop offset="1" stop-color="#8b5cf6"/>
    </linearGradient>
    <linearGradient id="ring" x1="0" x2="1" y1="0" y2="1">
      <stop offset="0" stop-color="#22d3ee"/>
      <stop offset="1" stop-color="#a78bfa"/>
    </linearGradient>
  </defs>
  <rect width="1200" height="800" rx="48" fill="#0b1020"/>
  <rect x="80" y="80" width="1040" height="640" rx="40" fill="url(#bg)" opacity="0.18"/>
  <circle cx="600" cy="340" r="170" fill="none" stroke="url(#ring)" stroke-width="12" opacity="0.9"/>
  <circle cx="600" cy="340" r="130" fill="#0f172a"/>
  <path d="M520 410c0-50 40-90 90-90h30c50 0 90 40 90 90v20c0 25-20 45-45 45h-150c-25 0-45-20-45-45v-20z" fill="#111827" opacity="0.85"/>
  <text x="600" y="360" text-anchor="middle" font-family="'Segoe UI', Arial, sans-serif" font-size="84" font-weight="800" fill="#e5e7eb">SG</text>
  <text x="600" y="455" text-anchor="middle" font-family="'Segoe UI', Arial, sans-serif" font-size="28" font-weight="600" fill="#c7d2fe">Personal Portfolio</text>
  <g opacity="0.5">
    <circle cx="200" cy="180" r="6" fill="#93c5fd"/>
    <circle cx="1000" cy="600" r="8" fill="#c4b5fd"/>
    <circle cx="260" cy="620" r="5" fill="#67e8f9"/>
    <circle cx="960" cy="200" r="5" fill="#a78bfa"/>
  </g>
</svg>
